<mxfile host="Electron" agent="Mozilla/5.0 (Windows NT 10.0; Win64; x64) AppleWebKit/537.36 (KHTML, like Gecko) draw.io/26.1.1 Chrome/132.0.6834.210 Electron/34.3.3 Safari/537.36" version="26.1.1">
  <diagram name="Page-1" id="_LiOAZHDDVOFVRROIFKj">
    <mxGraphModel dx="1714" dy="508" grid="1" gridSize="10" guides="1" tooltips="1" connect="1" arrows="1" fold="1" page="1" pageScale="1" pageWidth="850" pageHeight="1100" math="0" shadow="0">
      <root>
        <mxCell id="0" />
        <mxCell id="1" parent="0" />
        <mxCell id="Gb-ld5gpIillyneM-aC0-1" value="&lt;b&gt;&lt;font style=&quot;font-size: 30px;&quot;&gt;Data Flow Diagram&lt;/font&gt;&lt;/b&gt;" style="text;html=1;align=center;verticalAlign=middle;whiteSpace=wrap;rounded=0;" parent="1" vertex="1">
          <mxGeometry x="-190" y="10" width="350" height="30" as="geometry" />
        </mxCell>
        <mxCell id="Gb-ld5gpIillyneM-aC0-2" value="" style="rounded=0;whiteSpace=wrap;html=1;dashed=1;" parent="1" vertex="1">
          <mxGeometry x="-150" y="60" width="120" height="360" as="geometry" />
        </mxCell>
        <mxCell id="Gb-ld5gpIillyneM-aC0-3" value="&lt;font style=&quot;font-size: 14px;&quot;&gt;Source&lt;/font&gt;" style="rounded=0;whiteSpace=wrap;html=1;" parent="1" vertex="1">
          <mxGeometry x="-120" y="50" width="60" height="30" as="geometry" />
        </mxCell>
        <mxCell id="Gb-ld5gpIillyneM-aC0-4" value="&lt;b&gt;CRM&lt;/b&gt;" style="image;aspect=fixed;html=1;points=[];align=center;fontSize=12;image=img/lib/azure2/general/Folder_Blank.svg;" parent="1" vertex="1">
          <mxGeometry x="-128.01999999999998" y="120" width="69" height="56.00000000000001" as="geometry" />
        </mxCell>
        <mxCell id="Gb-ld5gpIillyneM-aC0-5" value="" style="image;aspect=fixed;html=1;points=[];align=center;fontSize=12;image=img/lib/azure2/general/File.svg;" parent="1" vertex="1">
          <mxGeometry x="-75.52" y="158" width="23.54" height="29" as="geometry" />
        </mxCell>
        <mxCell id="Gb-ld5gpIillyneM-aC0-25" style="edgeStyle=orthogonalEdgeStyle;rounded=0;orthogonalLoop=1;jettySize=auto;html=1;entryX=0;entryY=0.5;entryDx=0;entryDy=0;" parent="1" source="Gb-ld5gpIillyneM-aC0-6" target="Gb-ld5gpIillyneM-aC0-17" edge="1">
          <mxGeometry relative="1" as="geometry" />
        </mxCell>
        <mxCell id="Gb-ld5gpIillyneM-aC0-26" style="edgeStyle=orthogonalEdgeStyle;rounded=0;orthogonalLoop=1;jettySize=auto;html=1;entryX=0;entryY=0.5;entryDx=0;entryDy=0;" parent="1" source="Gb-ld5gpIillyneM-aC0-6" target="Gb-ld5gpIillyneM-aC0-18" edge="1">
          <mxGeometry relative="1" as="geometry" />
        </mxCell>
        <mxCell id="Gb-ld5gpIillyneM-aC0-27" style="edgeStyle=orthogonalEdgeStyle;rounded=0;orthogonalLoop=1;jettySize=auto;html=1;entryX=0;entryY=0.5;entryDx=0;entryDy=0;" parent="1" source="Gb-ld5gpIillyneM-aC0-6" target="Gb-ld5gpIillyneM-aC0-19" edge="1">
          <mxGeometry relative="1" as="geometry" />
        </mxCell>
        <mxCell id="Gb-ld5gpIillyneM-aC0-6" value="&lt;b&gt;ERP&lt;/b&gt;" style="image;aspect=fixed;html=1;points=[];align=center;fontSize=12;image=img/lib/azure2/general/Folder_Blank.svg;" parent="1" vertex="1">
          <mxGeometry x="-128.01999999999998" y="290" width="69" height="56.00000000000001" as="geometry" />
        </mxCell>
        <mxCell id="Gb-ld5gpIillyneM-aC0-7" value="" style="image;aspect=fixed;html=1;points=[];align=center;fontSize=12;image=img/lib/azure2/general/File.svg;" parent="1" vertex="1">
          <mxGeometry x="-75.51999999999998" y="330" width="23.54" height="29" as="geometry" />
        </mxCell>
        <mxCell id="Gb-ld5gpIillyneM-aC0-10" value="" style="rounded=0;whiteSpace=wrap;html=1;fillColor=none;strokeColor=#d79b00;" parent="1" vertex="1">
          <mxGeometry x="30" y="80" width="170" height="340" as="geometry" />
        </mxCell>
        <mxCell id="Gb-ld5gpIillyneM-aC0-11" value="&lt;font style=&quot;font-size: 20px;&quot;&gt;&lt;b&gt;Bronze Layer&lt;/b&gt;&lt;/font&gt;" style="rounded=1;whiteSpace=wrap;html=1;fillColor=#ffe6cc;strokeColor=#d79b00;" parent="1" vertex="1">
          <mxGeometry x="45" y="50" width="140" height="60" as="geometry" />
        </mxCell>
        <mxCell id="-ykFJfyqf7UO3BNjgveH-7" style="edgeStyle=orthogonalEdgeStyle;rounded=0;orthogonalLoop=1;jettySize=auto;html=1;entryX=0;entryY=0.5;entryDx=0;entryDy=0;" parent="1" source="Gb-ld5gpIillyneM-aC0-12" target="-ykFJfyqf7UO3BNjgveH-1" edge="1">
          <mxGeometry relative="1" as="geometry" />
        </mxCell>
        <mxCell id="Gb-ld5gpIillyneM-aC0-12" value="crm_cust_info" style="rounded=1;whiteSpace=wrap;html=1;fillColor=#ffe6cc;strokeColor=#d79b00;" parent="1" vertex="1">
          <mxGeometry x="55" y="120" width="120" height="32" as="geometry" />
        </mxCell>
        <mxCell id="-ykFJfyqf7UO3BNjgveH-8" style="edgeStyle=orthogonalEdgeStyle;rounded=0;orthogonalLoop=1;jettySize=auto;html=1;entryX=0;entryY=0.5;entryDx=0;entryDy=0;" parent="1" source="Gb-ld5gpIillyneM-aC0-13" target="-ykFJfyqf7UO3BNjgveH-2" edge="1">
          <mxGeometry relative="1" as="geometry" />
        </mxCell>
        <mxCell id="Gb-ld5gpIillyneM-aC0-13" value="crm_prd_info" style="rounded=1;whiteSpace=wrap;html=1;fillColor=#ffe6cc;strokeColor=#d79b00;" parent="1" vertex="1">
          <mxGeometry x="55" y="158" width="120" height="32" as="geometry" />
        </mxCell>
        <mxCell id="-ykFJfyqf7UO3BNjgveH-9" style="edgeStyle=orthogonalEdgeStyle;rounded=0;orthogonalLoop=1;jettySize=auto;html=1;" parent="1" source="Gb-ld5gpIillyneM-aC0-14" target="-ykFJfyqf7UO3BNjgveH-3" edge="1">
          <mxGeometry relative="1" as="geometry" />
        </mxCell>
        <mxCell id="Gb-ld5gpIillyneM-aC0-14" value="crm_sales_details" style="rounded=1;whiteSpace=wrap;html=1;fillColor=#ffe6cc;strokeColor=#d79b00;" parent="1" vertex="1">
          <mxGeometry x="55" y="200" width="120" height="32" as="geometry" />
        </mxCell>
        <mxCell id="Gb-ld5gpIillyneM-aC0-15" value="" style="rounded=0;whiteSpace=wrap;html=1;fillColor=none;strokeColor=#666666;fontColor=#333333;" parent="1" vertex="1">
          <mxGeometry x="255" y="80" width="170" height="340" as="geometry" />
        </mxCell>
        <mxCell id="Gb-ld5gpIillyneM-aC0-16" value="&lt;font style=&quot;font-size: 20px;&quot;&gt;&lt;b&gt;Silver Layer&lt;/b&gt;&lt;/font&gt;" style="rounded=1;whiteSpace=wrap;html=1;fillColor=#f5f5f5;strokeColor=#666666;fontColor=#333333;" parent="1" vertex="1">
          <mxGeometry x="270" y="50" width="140" height="60" as="geometry" />
        </mxCell>
        <mxCell id="-ykFJfyqf7UO3BNjgveH-10" style="edgeStyle=orthogonalEdgeStyle;rounded=0;orthogonalLoop=1;jettySize=auto;html=1;entryX=0;entryY=0.5;entryDx=0;entryDy=0;" parent="1" source="Gb-ld5gpIillyneM-aC0-17" target="-ykFJfyqf7UO3BNjgveH-4" edge="1">
          <mxGeometry relative="1" as="geometry" />
        </mxCell>
        <mxCell id="Gb-ld5gpIillyneM-aC0-17" value="erp_cust_az12" style="rounded=1;whiteSpace=wrap;html=1;fillColor=#ffe6cc;strokeColor=#d79b00;" parent="1" vertex="1">
          <mxGeometry x="55" y="250" width="120" height="32" as="geometry" />
        </mxCell>
        <mxCell id="-ykFJfyqf7UO3BNjgveH-11" style="edgeStyle=orthogonalEdgeStyle;rounded=0;orthogonalLoop=1;jettySize=auto;html=1;entryX=0;entryY=0.5;entryDx=0;entryDy=0;" parent="1" source="Gb-ld5gpIillyneM-aC0-18" target="-ykFJfyqf7UO3BNjgveH-5" edge="1">
          <mxGeometry relative="1" as="geometry" />
        </mxCell>
        <mxCell id="Gb-ld5gpIillyneM-aC0-18" value="erp_loc_a101" style="rounded=1;whiteSpace=wrap;html=1;fillColor=#ffe6cc;strokeColor=#d79b00;" parent="1" vertex="1">
          <mxGeometry x="55" y="290" width="120" height="32" as="geometry" />
        </mxCell>
        <mxCell id="-ykFJfyqf7UO3BNjgveH-12" style="edgeStyle=orthogonalEdgeStyle;rounded=0;orthogonalLoop=1;jettySize=auto;html=1;" parent="1" target="-ykFJfyqf7UO3BNjgveH-6" edge="1">
          <mxGeometry relative="1" as="geometry">
            <mxPoint x="175" y="347" as="sourcePoint" />
          </mxGeometry>
        </mxCell>
        <mxCell id="Gb-ld5gpIillyneM-aC0-19" value="erp_px_cat_g1v2" style="rounded=1;whiteSpace=wrap;html=1;fillColor=#ffe6cc;strokeColor=#d79b00;" parent="1" vertex="1">
          <mxGeometry x="55" y="330" width="120" height="32" as="geometry" />
        </mxCell>
        <mxCell id="Gb-ld5gpIillyneM-aC0-20" value="" style="endArrow=classic;html=1;rounded=0;entryX=0;entryY=0.5;entryDx=0;entryDy=0;" parent="1" target="Gb-ld5gpIillyneM-aC0-12" edge="1">
          <mxGeometry width="50" height="50" relative="1" as="geometry">
            <mxPoint x="-30" y="160" as="sourcePoint" />
            <mxPoint x="20" y="108" as="targetPoint" />
            <Array as="points">
              <mxPoint y="160" />
              <mxPoint y="136" />
            </Array>
          </mxGeometry>
        </mxCell>
        <mxCell id="Gb-ld5gpIillyneM-aC0-23" value="" style="endArrow=classic;html=1;rounded=0;entryX=0;entryY=0.5;entryDx=0;entryDy=0;" parent="1" target="Gb-ld5gpIillyneM-aC0-13" edge="1">
          <mxGeometry width="50" height="50" relative="1" as="geometry">
            <mxPoint x="-30" y="161" as="sourcePoint" />
            <mxPoint x="20" y="111" as="targetPoint" />
            <Array as="points">
              <mxPoint y="160" />
              <mxPoint y="174" />
            </Array>
          </mxGeometry>
        </mxCell>
        <mxCell id="Gb-ld5gpIillyneM-aC0-24" value="" style="endArrow=classic;html=1;rounded=0;entryX=0;entryY=0.5;entryDx=0;entryDy=0;" parent="1" target="Gb-ld5gpIillyneM-aC0-14" edge="1">
          <mxGeometry width="50" height="50" relative="1" as="geometry">
            <mxPoint x="-30" y="160" as="sourcePoint" />
            <mxPoint x="20" y="110" as="targetPoint" />
            <Array as="points">
              <mxPoint y="160" />
              <mxPoint y="216" />
            </Array>
          </mxGeometry>
        </mxCell>
        <mxCell id="TlpFaHBERK7Vu5h4uXvT-6" style="edgeStyle=orthogonalEdgeStyle;rounded=0;orthogonalLoop=1;jettySize=auto;html=1;entryX=0;entryY=0.5;entryDx=0;entryDy=0;jumpStyle=none;curved=1;strokeColor=default;arcSize=20;flowAnimation=0;" edge="1" parent="1" source="-ykFJfyqf7UO3BNjgveH-1" target="TlpFaHBERK7Vu5h4uXvT-3">
          <mxGeometry relative="1" as="geometry" />
        </mxCell>
        <mxCell id="-ykFJfyqf7UO3BNjgveH-1" value="crm_cust_info" style="rounded=1;whiteSpace=wrap;html=1;fillColor=#f5f5f5;strokeColor=#666666;fontColor=#333333;" parent="1" vertex="1">
          <mxGeometry x="280" y="120" width="120" height="32" as="geometry" />
        </mxCell>
        <mxCell id="TlpFaHBERK7Vu5h4uXvT-7" style="edgeStyle=orthogonalEdgeStyle;rounded=0;orthogonalLoop=1;jettySize=auto;html=1;entryX=0;entryY=0.5;entryDx=0;entryDy=0;jumpStyle=none;curved=1;strokeColor=default;arcSize=20;flowAnimation=0;" edge="1" parent="1" source="-ykFJfyqf7UO3BNjgveH-2" target="TlpFaHBERK7Vu5h4uXvT-2">
          <mxGeometry relative="1" as="geometry" />
        </mxCell>
        <mxCell id="-ykFJfyqf7UO3BNjgveH-2" value="crm_prd_info" style="rounded=1;whiteSpace=wrap;html=1;fillColor=#f5f5f5;strokeColor=#666666;fontColor=#333333;" parent="1" vertex="1">
          <mxGeometry x="280" y="158" width="120" height="32" as="geometry" />
        </mxCell>
        <mxCell id="TlpFaHBERK7Vu5h4uXvT-8" style="edgeStyle=orthogonalEdgeStyle;rounded=0;orthogonalLoop=1;jettySize=auto;html=1;entryX=0;entryY=0.5;entryDx=0;entryDy=0;jumpStyle=none;curved=1;strokeColor=default;arcSize=20;flowAnimation=0;" edge="1" parent="1" source="-ykFJfyqf7UO3BNjgveH-3" target="TlpFaHBERK7Vu5h4uXvT-4">
          <mxGeometry relative="1" as="geometry" />
        </mxCell>
        <mxCell id="-ykFJfyqf7UO3BNjgveH-3" value="crm_sales_details" style="rounded=1;whiteSpace=wrap;html=1;fillColor=#f5f5f5;strokeColor=#666666;fontColor=#333333;" parent="1" vertex="1">
          <mxGeometry x="280" y="200" width="120" height="32" as="geometry" />
        </mxCell>
        <mxCell id="TlpFaHBERK7Vu5h4uXvT-9" style="edgeStyle=orthogonalEdgeStyle;rounded=0;orthogonalLoop=1;jettySize=auto;html=1;entryX=0;entryY=0.5;entryDx=0;entryDy=0;jumpStyle=none;curved=1;strokeColor=default;arcSize=20;flowAnimation=0;" edge="1" parent="1" source="-ykFJfyqf7UO3BNjgveH-4" target="TlpFaHBERK7Vu5h4uXvT-3">
          <mxGeometry relative="1" as="geometry" />
        </mxCell>
        <mxCell id="-ykFJfyqf7UO3BNjgveH-4" value="erp_cust_az12" style="rounded=1;whiteSpace=wrap;html=1;fillColor=#f5f5f5;strokeColor=#666666;fontColor=#333333;" parent="1" vertex="1">
          <mxGeometry x="280" y="250" width="120" height="32" as="geometry" />
        </mxCell>
        <mxCell id="TlpFaHBERK7Vu5h4uXvT-10" style="edgeStyle=orthogonalEdgeStyle;rounded=0;orthogonalLoop=1;jettySize=auto;html=1;entryX=0;entryY=0.5;entryDx=0;entryDy=0;jumpStyle=none;curved=1;strokeColor=default;arcSize=20;flowAnimation=0;" edge="1" parent="1" source="-ykFJfyqf7UO3BNjgveH-5" target="TlpFaHBERK7Vu5h4uXvT-3">
          <mxGeometry relative="1" as="geometry" />
        </mxCell>
        <mxCell id="-ykFJfyqf7UO3BNjgveH-5" value="erp_loc_a101" style="rounded=1;whiteSpace=wrap;html=1;fillColor=#f5f5f5;strokeColor=#666666;fontColor=#333333;" parent="1" vertex="1">
          <mxGeometry x="280" y="290" width="120" height="32" as="geometry" />
        </mxCell>
        <mxCell id="TlpFaHBERK7Vu5h4uXvT-11" style="edgeStyle=orthogonalEdgeStyle;rounded=0;orthogonalLoop=1;jettySize=auto;html=1;entryX=0;entryY=0.5;entryDx=0;entryDy=0;jumpStyle=none;curved=1;strokeColor=default;arcSize=20;flowAnimation=0;" edge="1" parent="1" source="-ykFJfyqf7UO3BNjgveH-6" target="TlpFaHBERK7Vu5h4uXvT-2">
          <mxGeometry relative="1" as="geometry" />
        </mxCell>
        <mxCell id="-ykFJfyqf7UO3BNjgveH-6" value="erp_px_cat_g1v2" style="rounded=1;whiteSpace=wrap;html=1;fillColor=#f5f5f5;strokeColor=#666666;fontColor=#333333;" parent="1" vertex="1">
          <mxGeometry x="280" y="332" width="120" height="32" as="geometry" />
        </mxCell>
        <mxCell id="TlpFaHBERK7Vu5h4uXvT-1" value="" style="rounded=0;whiteSpace=wrap;html=1;fillColor=none;strokeColor=#d6b656;" vertex="1" parent="1">
          <mxGeometry x="490" y="80" width="170" height="340" as="geometry" />
        </mxCell>
        <mxCell id="TlpFaHBERK7Vu5h4uXvT-2" value="dim_products" style="rounded=1;whiteSpace=wrap;html=1;fillColor=#fff2cc;strokeColor=#d6b656;" vertex="1" parent="1">
          <mxGeometry x="515" y="224" width="120" height="32" as="geometry" />
        </mxCell>
        <mxCell id="TlpFaHBERK7Vu5h4uXvT-3" value="dim_customers" style="rounded=1;whiteSpace=wrap;html=1;fillColor=#fff2cc;strokeColor=#d6b656;" vertex="1" parent="1">
          <mxGeometry x="515" y="314" width="120" height="32" as="geometry" />
        </mxCell>
        <mxCell id="TlpFaHBERK7Vu5h4uXvT-4" value="fact_sales" style="rounded=1;whiteSpace=wrap;html=1;fillColor=#fff2cc;strokeColor=#d6b656;" vertex="1" parent="1">
          <mxGeometry x="515" y="132" width="120" height="32" as="geometry" />
        </mxCell>
        <mxCell id="TlpFaHBERK7Vu5h4uXvT-5" value="&lt;font style=&quot;font-size: 20px;&quot;&gt;&lt;b&gt;Gold Layer&lt;/b&gt;&lt;/font&gt;" style="rounded=1;whiteSpace=wrap;html=1;fillColor=#fff2cc;strokeColor=#d6b656;" vertex="1" parent="1">
          <mxGeometry x="505" y="50" width="140" height="60" as="geometry" />
        </mxCell>
      </root>
    </mxGraphModel>
  </diagram>
</mxfile>
